<?xml version="1.0" encoding="utf-8"?>
<!-- Generator: Adobe Illustrator 25.2.3, SVG Export Plug-In . SVG Version: 6.00 Build 0)  -->
<svg version="1.1" id="Layer_1" xmlns="http://www.w3.org/2000/svg" xmlns:xlink="http://www.w3.org/1999/xlink" x="0px" y="0px"
	 viewBox="0 0 220 214" style="enable-background:new 0 0 220 214;" xml:space="preserve">
<style type="text/css">
	.st0{fill:#0C74DF;}
	.st1{fill:#FFFFFF;}
</style>
<g>
	<circle class="st0" cx="110" cy="107" r="96.3"/>
	<g>
		<path class="st1" d="M56.6,82.7c-2.6,0-4.3-1-4.9-2.9c-0.7-2.1,0.1-3.8,2.4-5c10.2-5.7,20.4-11.3,30.6-17
			c6.4-3.5,12.8-7.1,19.1-10.7c2.7-1.5,5.2-1.6,7.9-0.1c16.7,9.2,33.4,18.4,50.2,27.5c2,1.1,2.8,2.9,2.3,4.9c-0.4,1.8-2.1,3-4.4,3
			C142.6,82.5,73.7,82.8,56.6,82.7z"/>
		<path class="st1" d="M119,126.5c1.2,4,2.7,7.2,5.3,9.5c2.1,1.9,4.9,3.3,7.5,4.3c7.3,2.8,13.9,1,20.1-3.4c0.7-0.5,1.5-0.8,2.4-0.9
			c2.5-0.1,5-0.1,7.6,0c2.2,0.1,3,1.4,1.8,3.2c-2,2.9-4.3,5.6-6.5,8.3c-5.3,6.4-10.7,12.8-16.1,19.2c-1.5,1.8-2.9,2-4.5,0.2
			c-6.8-7.7-13.6-15.5-20.5-23.2c-3.8-4.3-6.7-9-8-14.7c-3.3-13.6,2.7-28.5,15.5-35.1c6.6-3.4,13.7-4.9,20.9-3
			c4.4,1.1,8.9,2.5,12.5,5.7c7.7,6.8,12,15.2,11.5,25.6c-0.1,2.9-1.6,4.3-4.5,4.3H119z M156.6,116.3c0-6.9-8.8-14.6-16.9-15
			c-11-0.6-19.4,6.6-20.4,15H156.6z"/>
		<path class="st1" d="M83.6,155.3h-27c-3.2,0-4.6-1.3-4.6-4.6c0-1.3,0-2.6,0-4c0.1-2.6,1.6-4,4.2-4H101c0.7,0,1.4,0,2.2,0
			c0.6,0,1.2,0.1,1.7,0.3c0.5,0.3,1,0.7,1.3,1.2c2,2.6,4.2,5.1,6.2,7.7c0.5,0.7,0.9,1.8,0.7,2.5c-0.1,0.5-1.5,0.8-2.3,0.8
			C101.7,155.3,92.7,155.3,83.6,155.3z"/>
		<path class="st1" d="M61,112.9c0-6,0-12,0-18c0-2.3,1-3.4,3.4-3.4c2.1,0,4.2,0,6.3,0c2.3,0,3.6,1.3,3.6,3.6c0,12,0,23.9,0,35.9
			c0,2.6-1.2,3.9-3.8,4c-1.9,0.1-3.8,0.1-5.8,0c-2.7-0.1-3.7-1.3-3.7-4C61,124.9,61,118.9,61,112.9z"/>
		<path class="st1" d="M84.1,113.4c0-6.1,0-12.2,0-18.4c0-2.3,1-3.4,3.4-3.5c1.7-0.1,3.4-0.1,5,0c2.7,0.1,3.9,1.4,3.9,4.1
			c0,12.2,0,24.4,0,36.6c0,2.2-0.7,2.9-2.9,3c-2.1,0-4.2,0.1-6.3,0c-2.3-0.1-3.1-1-3.1-3.2C84.1,125.7,84.1,119.5,84.1,113.4z"/>
	</g>
</g>
</svg>
