<svg width="16" height="19" viewBox="0 0 16 19" fill="none" xmlns="http://www.w3.org/2000/svg">
<path d="M7.99921 0C7.36708 0 6.85637 0.530664 6.85637 1.1875V1.9C4.24926 2.44922 2.285 4.84648 2.285 7.71875V8.41641C2.285 10.1605 1.66715 11.8453 0.552881 13.1516L0.288598 13.4596C-0.0113978 13.8084 -0.0828254 14.3094 0.099315 14.7361C0.281455 15.1629 0.692164 15.4375 1.14216 15.4375H14.8563C15.3063 15.4375 15.7134 15.1629 15.8991 14.7361C16.0848 14.3094 16.0098 13.8084 15.7098 13.4596L15.4455 13.1516C14.3313 11.8453 13.7134 10.1643 13.7134 8.41641V7.71875C13.7134 4.84648 11.7492 2.44922 9.14205 1.9V1.1875C9.14205 0.530664 8.63135 0 7.99921 0ZM9.61705 18.3061C10.0456 17.8607 10.2849 17.2559 10.2849 16.625H7.99921H5.71353C5.71353 17.2559 5.95281 17.8607 6.38137 18.3061C6.80994 18.7514 7.39208 19 7.99921 19C8.60635 19 9.18848 18.7514 9.61705 18.3061Z" fill="white"/>
</svg>
