<svg width="25" height="25" viewBox="0 0 25 25" fill="none" xmlns="http://www.w3.org/2000/svg">
<path d="M21.3817 21C21.3817 21.5835 20.2848 21.5874 19.8889 22C19.493 22.4126 18.2363 23.5 17.6764 23.5L13 24.5C12.4401 24.5 6.89595 23.4126 6.50003 23C6.10412 22.5874 4.85502 22.5835 4.85502 22C4.85502 20.2496 3.66729 21.3708 4.85503 20.1331C6.04276 18.8954 7.65366 18.2 9.33337 18.2H15.6667C17.3464 18.2 18.9573 18.8954 20.145 20.1331C21.3328 21.3708 21.3817 19.2496 21.3817 21ZM12.5 16C13.5439 16 14.5643 15.6774 15.4322 15.0731C16.3001 14.4687 16.9766 13.6098 17.3761 12.6048C17.7755 11.5998 17.88 10.4939 17.6764 9.42701C17.4728 8.36011 16.9701 7.3801 16.232 6.61092C15.4939 5.84173 14.5535 5.3179 13.5297 5.10568C12.5059 4.89346 11.4447 5.00238 10.4803 5.41867C9.51593 5.83495 8.69165 6.5399 8.11172 7.44437C7.53179 8.34884 7.22226 9.4122 7.22226 10.5C7.22226 11.9587 7.77831 13.3576 8.76808 14.3891C9.75786 15.4205 11.1003 16 12.5 16Z" fill="white"/>
<path d="M12.5 0C19.4036 0 25 5.59644 25 12.5C25 19.4036 19.4036 25 12.5 25C5.59644 25 0 19.4036 0 12.5C0 5.59644 5.59644 0 12.5 0ZM12.5 1C6.14873 1 1 6.14873 1 12.5C1 18.8513 6.14873 24 12.5 24C18.8513 24 24 18.8513 24 12.5C24 6.14873 18.8513 1 12.5 1Z" fill="white"/>
</svg>
